<?xml version="1.0" encoding="UTF-8" standalone="no"?>
<!-- Created with Inkscape (http://www.inkscape.org/) -->

<svg
   xmlns:dc="http://purl.org/dc/elements/1.1/"
   xmlns:cc="http://creativecommons.org/ns#"
   xmlns:rdf="http://www.w3.org/1999/02/22-rdf-syntax-ns#"
   xmlns:svg="http://www.w3.org/2000/svg"
   xmlns="http://www.w3.org/2000/svg"
   xmlns:sodipodi="http://sodipodi.sourceforge.net/DTD/sodipodi-0.dtd"
   xmlns:inkscape="http://www.inkscape.org/namespaces/inkscape"
   version="1.1"
   id="svg3713"
   width="369"
   height="294"
   viewBox="0 0 369 294"
   sodipodi:docname="duuanggFINAL.svg"
   inkscape:version="0.92.3 (2405546, 2018-03-11)">
  <metadata
     id="metadata3719">
    <rdf:RDF>
      <cc:Work
         rdf:about="">
        <dc:format>image/svg+xml</dc:format>
        <dc:type
           rdf:resource="http://purl.org/dc/dcmitype/StillImage" />
        <dc:title></dc:title>
      </cc:Work>
    </rdf:RDF>
  </metadata>
  <defs
     id="defs3717" />
  <sodipodi:namedview
     pagecolor="#ffffff"
     bordercolor="#666666"
     borderopacity="1"
     objecttolerance="10"
     gridtolerance="10"
     guidetolerance="10"
     inkscape:pageopacity="0"
     inkscape:pageshadow="2"
     inkscape:window-width="1920"
     inkscape:window-height="1017"
     id="namedview3715"
     showgrid="false"
     inkscape:zoom="2.0395461"
     inkscape:cx="223.41184"
     inkscape:cy="154.28159"
     inkscape:window-x="-8"
     inkscape:window-y="-8"
     inkscape:window-maximized="1"
     inkscape:current-layer="layer1"
     showguides="true" />
  <g
     inkscape:groupmode="layer"
     id="layer1"
     inkscape:label="Layer 1 SVG"
     style="opacity:0.79900004">
    <path
       style="fill:#baffc9;fill-opacity:1;stroke-width:1.02020407"
       d="m 224.22852,19.167969 -15.7168,11.923828 25.65234,14.115234 -32.14844,0.398438 c -0.0443,-0.537441 -0.0713,-0.908443 -0.11914,-1.480469 -0.4633,-5.53809 -0.54177,-12.782806 -0.14062,-16.597656 0.42844,-4.07433 1.08008,-6.769531 1.08008,-6.769532 -3.80885,0.26541 -10.35713,-0.204858 -14.85938,0.06055 l -11.47265,-1.041015 c 0,0 0.3107,11.114405 1.96289,25.974609 L 96.382812,43.683594 c 10e-7,0 4.289518,33.307384 3.119141,49.6875 -0.633611,8.867716 -1.15081,18.362666 -5.642578,26.091796 -3.786896,6.51622 -15.544922,15.9043 -15.544922,15.9043 l 13.908203,15.61914 c 0,0 10.303954,-7.72937 14.611324,-12.52344 3.79826,-4.22742 7.75855,-9.04235 9.76368,-14.31641 1.5595,-4.10191 2.94396,-8.4945 3.8789,-13.83593 1.21427,-6.93725 1.94533,-14.629857 2.3711,-22.228519 h 26.96484 l -0.0391,3.792969 -0.27539,9.37109 c 0,0 -0.75676,6.81891 -2.75782,9.08203 -1.83367,2.07381 -4.59707,2.37604 -7.32812,2.82813 -4.24021,0.70191 -12.86719,-0.82617 -12.86719,-0.82617 l 10.40039,19.06836 19.97657,-5.10547 c 0,0 9.00203,-3.42949 11.75195,-6.9082 1.19211,-1.50805 1.63024,-2.64004 2.45703,-5.53516 0.97475,-3.64398 1.46486,-8.02817 1.53906,-12.79492 l 0.60547,-27.916018 -0.4375,0.03125 v -0.01758 h -49.5 c 0.0497,-4.315504 0.0246,-8.339068 -0.0371,-11.962891 l 57.2168,-0.175781 c 0.75572,4.755759 1.64452,9.623552 2.70312,14.433594 0.85187,3.87066 3.57294,14.010529 4.75586,17.193359 1.76543,4.75013 6.3638,13.788067 10.03125,18.833987 -4.05293,3.23141 -8.58089,6.445 -12.99693,9.08236 -3.68479,2.20064 -7.29167,4.00008 -10.47963,5.07389 -3.37942,1.1383 -11.96277,3.46908 -20.04297,5.60937 -2.13447,-0.27938 -4.17356,-0.56756 -6.20312,-0.70898 0,0 0.16388,0.75922 0.38476,2.23242 -5.36746,1.39826 -11.55859,3.00586 -11.55859,3.00586 l 12.17383,11.04883 c -0.0666,1.81296 -0.15955,3.63033 -0.30469,5.36523 -0.18242,2.18052 -0.3221,3.97676 -0.45703,5.72657 l -64.623049,-1.0293 0.224068,7.76461 -0.128365,8.835 63.408206,0.37305 c -0.18688,2.00218 -0.44388,3.61025 -1.02539,6.42968 -1.03114,4.9994 -1.8014,13.77395 -5.01172,21.8086 -2.50853,6.27823 -5.9332,12.66767 -8.60547,15.6289 -6.57276,7.28348 -9.12788,9.73609 -24.33789,18.59375 -5.00925,2.91717 -27.917971,9.14844 -27.917971,9.14844 l 14.214844,15.60156 c 0,0 20.907977,-7.16207 33.857417,-14.45312 16.60709,-9.35045 22.91573,-16.81092 25.33594,-19.56641 3.79826,-4.32445 8.94214,-13.35099 10.94727,-18.74609 1.18292,-3.18283 2.18719,-8.17622 3.03906,-12.04688 1.52827,-6.94406 2.56116,-14.64617 3.25977,-22.25781 l 5.67968,0.0332 8.25,0.0488 0.20313,38.81445 c 0,0 -0.0395,5.78431 -0.0684,9.23047 -8.49019,2.55341 -31.44141,8.60743 -31.44141,8.60743 l 5.75196,8.70117 3.75195,7.5332 c 0,0 14.57006,-4.46304 21.86328,-7.11523 0.004,5.84588 0.0377,10.89105 0.17578,11.69726 0.93629,5.46558 5.75549,7.08352 9.19727,7.60938 8.41659,2.24176 28.27539,2.55664 28.27539,2.55664 l 14.57226,-0.0625 c 0,0 11.43596,-0.24396 16.25586,-1.55664 3.69817,-1.00718 7.25716,-3.91545 9.63705,-6.52842 3.61633,-3.97051 7.80316,-16.07754 9.86686,-21.6044 -8.43394,-2.18073 -14.73465,-3.57189 -23.53212,-6.04882 0,0 -1.05842,4.82059 -1.7296,7.12109 -1.04294,3.57472 -1.74538,7.82613 -4.64844,10.1582 -2.68885,2.15999 -10.11523,2.17578 -10.11523,2.17578 l -8.42015,-0.17103 -6.19509,-0.12584 c -3.19159,-0.28284 -5.23155,-0.14118 -8.07184,-1.22791 0,0 -0.97661,-0.42084 -1.15897,-0.84051 -0.17244,-0.39684 -0.30239,-1.4765 -0.30239,-1.4765 l -0.16211,-12.75196 c 12.06017,-6.16812 18.03598,-10.07706 20.49024,-11.92187 16.74431,-12.58633 31.27734,-25.28125 31.27734,-25.28125 l -20.75586,-10.87891 c 0,0 -4.20892,4.47589 -13.15234,13.93946 -2.69158,2.84812 -10.10204,8.75678 -18.04102,14.35156 l 0.18945,-34.76758 59.86524,0.34961 c 0,0 -0.20902,-5.29089 -0.16992,-8.00586 0.0422,-2.93036 0.53906,-8.59375 0.53906,-8.59375 l -39.24023,0.16602 11.02343,-9.75 c 4.96743,1.86186 9.9662,2.85682 14.59961,2.17382 4.46181,-0.6577 7.65661,-5.08298 10.38281,-8.67578 4.8379,-6.37575 9.86719,-21.88867 9.86719,-21.88867 l -10.10937,-2.97461 -13.08594,-5.47265 c 0,0 -5.74856,20.61248 -10.75781,17.69531 -8.65114,-6.4277 -13.29547,-11.06069 -17.07032,-16.00586 15.43275,-17.371031 27.60743,-39.822269 27.60743,-39.822269 l -24.4961,-7.369141 c 0,10e-7 -6.24818,16.688435 -14.67383,29.669922 -0.5205,-0.784487 -1.04502,-1.574394 -1.61523,-2.412109 -3.21032,-8.03465 -7.12226,-18.452412 -7.70703,-23.523437 -0.48177,-4.177878 -0.47464,-5.265444 -0.64649,-8.6875 l 66.26954,0.279296 c 0,0 0.11174,-5.430881 0.0258,-8.574875 0.0395,-2.93035 0.31993,-8.024734 0.31993,-8.024734 l -28.00195,0.347656 10.98046,-11.554687 z M 209.76367,126.95703 c 0.337,0.42504 0.54706,0.6961 0.90821,1.15039 1.39114,1.74994 5.75906,6.26104 7.94726,7.74805 0.94888,0.64481 1.97567,1.33117 3.00195,2.01562 l -12.05273,-6.28125 -7.91016,5.66797 -9.33593,6.00977 25.68359,14.91015 -41.58398,0.17579 -4.23243,-0.0664 c 0.1958,-4.68533 0.28891,-9.03545 0.32422,-12.84961 4.12831,-1.46956 8.00607,-2.81659 10.08399,-3.40039 5.05499,-1.42021 21.16112,-10.95896 27.16601,-15.08008 z"
       id="rect3728"
       inkscape:connector-curvature="0"
       sodipodi:nodetypes="cccccccccccssccccsccccsscccccccccccccccsscccccsccccccsssccsssscccccccccccccssccssccccsccsccscccscccccccccccccccccccccccccccccccccccc" />
  </g>
</svg>
